<?xml version="1.0" encoding="UTF-8" standalone="no"?>
<svg
   width="166"
   height="63"
   viewBox="0 0 166 63"
   fill="none"
   version="1.1"
   id="svg1130"
   sodipodi:docname="logo__organo--black.svg"
   inkscape:version="1.2.1 (9c6d41e410, 2022-07-14)"
   xmlns:inkscape="http://www.inkscape.org/namespaces/inkscape"
   xmlns:sodipodi="http://sodipodi.sourceforge.net/DTD/sodipodi-0.dtd"
   xmlns="http://www.w3.org/2000/svg"
   xmlns:svg="http://www.w3.org/2000/svg">
  <defs
     id="defs1134" />
  <sodipodi:namedview
     id="namedview1132"
     pagecolor="#ffffff"
     bordercolor="#000000"
     borderopacity="0.25"
     inkscape:showpageshadow="2"
     inkscape:pageopacity="0.0"
     inkscape:pagecheckerboard="0"
     inkscape:deskcolor="#d1d1d1"
     showgrid="false"
     inkscape:zoom="3.7638037"
     inkscape:cx="65.093724"
     inkscape:cy="21.786471"
     inkscape:window-width="1920"
     inkscape:window-height="1017"
     inkscape:window-x="-8"
     inkscape:window-y="-8"
     inkscape:window-maximized="1"
     inkscape:current-layer="svg1130" />
  <g
     id="g323"
     style="fill:#212121;fill-opacity:1">
    <path
       d="m 52.0083,40.46 c -1.7455,0 -3.3078,-0.3843 -4.6954,-1.1615 -1.379,-0.7773 -2.47,-1.8427 -3.2642,-3.205 -0.7942,-1.3624 -1.1957,-2.9081 -1.1957,-4.6285 0,-1.7204 0.4015,-3.2924 1.1957,-4.6285 0.7942,-1.3362 1.8765,-2.3929 3.2467,-3.1701 1.3702,-0.7773 2.9412,-1.1615 4.7129,-1.1615 1.7717,0 3.3078,0.3842 4.6955,1.144 1.379,0.7598 2.4612,1.8165 3.2467,3.1701 0.7855,1.3536 1.1782,2.8994 1.1782,4.646 0,1.7466 -0.3927,3.2923 -1.1782,4.6459 -0.7855,1.3536 -1.8677,2.4103 -3.2467,3.1876 -1.379,0.7772 -2.9499,1.1615 -4.6955,1.1615 z m 0,-2.7859 c 1.1259,0 2.1383,-0.2532 3.0372,-0.7597 0.899,-0.5066 1.5972,-1.2314 2.1034,-2.1746 0.5062,-0.9431 0.7593,-2.026 0.7593,-3.2661 0,-1.2401 -0.2531,-2.3492 -0.7593,-3.2662 -0.5062,-0.9169 -1.2131,-1.633 -2.1034,-2.1395 -0.8989,-0.5066 -1.9113,-0.7598 -3.0372,-0.7598 -1.1258,0 -2.1295,0.2532 -3.0197,0.7598 -0.8815,0.5065 -1.5885,1.2226 -2.1209,2.1395 -0.5323,0.917 -0.7942,2.0086 -0.7942,3.2662 0,1.2575 0.2619,2.3317 0.7942,3.2661 0.5324,0.9432 1.2394,1.668 2.1209,2.1746 0.8815,0.5065 1.8939,0.7597 3.0197,0.7597 z"
       fill="white"
       id="path182"
       style="fill:#212121;fill-opacity:1" />
    <path
       d="M 66.6009,40.2591 V 22.6708 h 3.0547 v 4.777 l -0.2968,-1.1965 c 0.4888,-1.2138 1.3004,-2.1483 2.4525,-2.7858 1.152,-0.6375 2.5659,-0.9606 4.2416,-0.9606 v 3.0827 c -0.1309,-0.0174 -0.2618,-0.0349 -0.384,-0.0349 h -0.3491 c -1.7019,0 -3.0547,0.5065 -4.0496,1.5283 -0.995,1.0217 -1.4924,2.4889 -1.4924,4.4102 v 8.7592 h -3.1856 z"
       fill="white"
       id="path184"
       style="fill:#212121;fill-opacity:1" />
    <path
       d="m 88.1582,39.5343 c -1.7019,0 -3.2205,-0.358 -4.5645,-1.0741 -1.3441,-0.7161 -2.4001,-1.7204 -3.1856,-3.0042 -0.7855,-1.2837 -1.1782,-2.7684 -1.1782,-4.4451 0,-1.6767 0.3927,-3.1876 1.1782,-4.4626 0.7855,-1.275 1.8503,-2.2618 3.1856,-2.9692 1.3353,-0.7074 2.8539,-1.0654 4.5645,-1.0654 1.5012,0 2.8714,0.3056 4.1108,0.9082 1.2393,0.6113 2.2255,1.5458 2.9674,2.8033 0.7418,1.2576 1.1084,2.8557 1.1084,4.777 0,1.9212 -0.3666,3.4844 -1.1084,4.742 -0.7419,1.2576 -1.7281,2.2095 -2.9674,2.8382 -1.2394,0.6288 -2.6096,0.9432 -4.1108,0.9432 z m 0.4015,7.3707 c -1.6146,0 -3.1769,-0.2271 -4.6955,-0.6812 -1.5186,-0.4541 -2.7492,-1.1003 -3.7005,-1.9387 l 1.5274,-2.454 c 0.8204,0.7074 1.824,1.2663 3.0197,1.6767 1.1957,0.4105 2.4438,0.6114 3.7442,0.6114 2.0772,0 3.6045,-0.4891 4.5733,-1.4585 0.9687,-0.9693 1.4575,-2.4539 1.4575,-4.4451 v -3.7202 l 0.3316,-3.4845 -0.1658,-3.5194 v -4.8119 h 3.0198 v 15.1955 c 0,3.1002 -0.7768,5.3795 -2.3216,6.8379 -1.5448,1.4584 -3.814,2.192 -6.7988,2.192 z M 88.5248,36.7485 c 1.1695,0 2.2081,-0.2445 3.1158,-0.7336 0.9076,-0.489 1.6233,-1.1615 2.1382,-2.026 0.5237,-0.8646 0.7768,-1.8602 0.7768,-2.9867 0,-1.1266 -0.2618,-2.1222 -0.7768,-2.9867 -0.5149,-0.8646 -1.2306,-1.5283 -2.1382,-2.0086 -0.9077,-0.4716 -1.9463,-0.7161 -3.1158,-0.7161 -1.1695,0 -2.2168,0.2358 -3.1332,0.7161 -0.9164,0.4716 -1.6408,1.144 -2.1558,2.0086 -0.5149,0.8645 -0.7767,1.8601 -0.7767,2.9867 0,1.1265 0.2618,2.1221 0.7767,2.9867 0.5237,0.8645 1.2394,1.537 2.1558,2.026 0.9164,0.4891 1.9637,0.7336 3.1332,0.7336 z"
       fill="white"
       id="path186"
       style="fill:#212121;fill-opacity:1" />
    <path
       d="m 109.951,40.4599 c -1.309,0 -2.452,-0.2183 -3.43,-0.6637 -0.986,-0.4454 -1.745,-1.0567 -2.269,-1.8427 -0.532,-0.7859 -0.794,-1.6767 -0.794,-2.6723 0,-0.9955 0.227,-1.8164 0.681,-2.5849 0.453,-0.7773 1.195,-1.3973 2.225,-1.8602 1.03,-0.4628 2.418,-0.6986 4.163,-0.6986 h 5.568 v 2.288 h -5.437 c -1.588,0 -2.662,0.262 -3.22,0.7947 -0.55,0.5328 -0.83,1.1703 -0.83,1.9213 0,0.8646 0.341,1.5545 1.03,2.0785 0.681,0.5239 1.632,0.7772 2.854,0.7772 1.222,0 2.243,-0.262 3.133,-0.7947 0.899,-0.5327 1.545,-1.3012 1.938,-2.323 l 0.628,2.192 c -0.419,1.0392 -1.16,1.8601 -2.225,2.4714 -1.065,0.6114 -2.4,0.9083 -4.015,0.9083 z m 5.769,-0.2008 v -3.7203 l -0.166,-0.6987 V 29.5 c 0,-1.3449 -0.392,-2.3929 -1.178,-3.1352 -0.785,-0.7423 -1.964,-1.1091 -3.535,-1.1091 -1.038,0 -2.059,0.1747 -3.054,0.5153 -0.995,0.3406 -1.833,0.8034 -2.523,1.3798 l -1.326,-2.3929 c 0.907,-0.7335 1.998,-1.2924 3.264,-1.6767 1.274,-0.3842 2.601,-0.5851 3.997,-0.5851 2.409,0 4.268,0.5851 5.568,1.7553 1.301,1.1703 1.955,2.9693 1.955,5.3796 v 10.6193 h -3.019 z"
       fill="white"
       id="path188"
       style="fill:#212121;fill-opacity:1" />
    <path
       d="m 135.087,22.5049 c 1.44,0 2.705,0.2794 3.796,0.8296 1.091,0.5502 1.955,1.3973 2.566,2.5239 0.611,1.1265 0.925,2.5587 0.925,4.2791 v 10.1216 h -3.185 v -9.7548 c 0,-1.7029 -0.41,-2.9867 -1.24,-3.8512 -0.829,-0.8646 -1.998,-1.2925 -3.499,-1.2925 -1.126,0 -2.112,0.2183 -2.95,0.6637 -0.838,0.4454 -1.484,1.0916 -1.938,1.9562 -0.454,0.8646 -0.681,1.9387 -0.681,3.2225 v 9.0561 h -3.185 V 22.6708 h 3.054 v 4.742 l -0.497,-1.2575 c 0.576,-1.1528 1.458,-2.0435 2.653,-2.6898 1.196,-0.6375 2.584,-0.9606 4.181,-0.9606 z"
       fill="white"
       id="path190"
       style="fill:#212121;fill-opacity:1" />
    <path
       d="m 156.88,40.46 c -1.746,0 -3.308,-0.3843 -4.696,-1.1615 -1.379,-0.7773 -2.47,-1.8427 -3.264,-3.205 -0.794,-1.3624 -1.196,-2.9081 -1.196,-4.6285 0,-1.7204 0.402,-3.2924 1.196,-4.6285 0.794,-1.3362 1.876,-2.3929 3.247,-3.1701 1.37,-0.7773 2.941,-1.1615 4.713,-1.1615 1.771,0 3.307,0.3842 4.695,1.144 1.388,0.7598 2.461,1.8165 3.247,3.1701 0.785,1.3536 1.178,2.8994 1.178,4.646 0,1.7466 -0.393,3.2923 -1.178,4.6459 -0.786,1.3536 -1.868,2.4103 -3.247,3.1876 -1.379,0.7772 -2.95,1.1615 -4.695,1.1615 z m 0,-2.7859 c 1.126,0 2.138,-0.2532 3.037,-0.7597 0.899,-0.5066 1.597,-1.2314 2.103,-2.1746 0.506,-0.9431 0.76,-2.026 0.76,-3.2661 0,-1.2401 -0.254,-2.3492 -0.76,-3.2662 -0.506,-0.9169 -1.213,-1.633 -2.103,-2.1395 -0.899,-0.5066 -1.903,-0.7598 -3.037,-0.7598 -1.135,0 -2.139,0.2532 -3.02,0.7598 -0.882,0.5065 -1.589,1.2226 -2.121,2.1395 -0.532,0.917 -0.794,2.0086 -0.794,3.2662 0,1.2575 0.262,2.3317 0.794,3.2661 0.532,0.9432 1.239,1.668 2.121,2.1746 0.881,0.5065 1.894,0.7597 3.02,0.7597 z"
       fill="white"
       id="path192"
       style="fill:#212121;fill-opacity:1" />
    <path
       d="m 5.30667,12.2262 c 0.21819,0.4367 0.6633,0.7161 1.15205,0.7161 0.48875,0 0.93386,-0.2794 1.15205,-0.7161 L 12.795,1.86887 C 12.9957,1.46715 12.9695,0.995564 12.7339,0.611311 12.4982,0.227059 12.0793,0 11.6342,0 H 1.29195 C 0.846844,0 0.427917,0.235792 0.192271,0.611311 -0.0433758,0.995564 -0.060831,1.46715 0.131177,1.86887 Z M 9.5483,2.58497 6.46745,8.75922 3.38659,2.58497 Z M 6.46745,37.9712 c 1.71934,0 3.36014,-0.6812 4.57325,-1.8951 1.2132,-1.2139 1.8939,-2.8644 1.8939,-4.5761 0,-1.7117 -0.6807,-3.3622 -1.8939,-4.5761 C 9.82759,25.71 8.17806,25.0288 6.46745,25.0288 4.75683,25.0288 3.1073,25.71 1.89416,26.9239 0.681019,28.1378 2.62606e-4,29.7883 2.62606e-4,31.5 c 0,1.7117 0.680756394,3.3622 1.893897394,4.5761 1.21314,1.2139 2.85394,1.8951 4.57329,1.8951 z m 0,-10.3574 c 1.02986,0 2.01608,0.4105 2.7492,1.1353 0.7244,0.7248 1.13455,1.7204 1.13455,2.7509 0,1.0305 -0.41015,2.0173 -1.13455,2.7509 -0.72439,0.7248 -1.71934,1.1353 -2.7492,1.1353 -1.02987,0 -2.01609,-0.4105 -2.74921,-1.1353 -0.7244,-0.7248 -1.1346,-1.7204 -1.1346,-2.7509 0,-1.0305 0.4102,-2.0173 1.1346,-2.7509 0.72439,-0.7248 1.71934,-1.1353 2.74921,-1.1353 z M 1.29195,63 H 11.6429 c 0.7157,0 1.2917,-0.5764 1.2917,-1.2925 V 51.3502 c 0,-0.7162 -0.576,-1.2925 -1.2917,-1.2925 H 1.29195 c -0.715663,0 -1.291687394,0.5763 -1.291687394,1.2925 V 61.7075 C 2.62606e-4,62.4236 0.576287,63 1.29195,63 Z M 2.58364,52.6426 H 10.3512 V 60.415 H 2.58364 Z M 23.2856,55.2363 V 32.7925 h -7.3312 c -0.7157,0 -1.2917,-0.5764 -1.2917,-1.2925 0,-0.7161 0.576,-1.2925 1.2917,-1.2925 h 7.3312 V 7.76365 h -7.3312 c -0.7157,0 -1.2917,-0.57637 -1.2917,-1.29248 0,-0.71611 0.576,-1.29249 1.2917,-1.29249 h 8.6229 c 0.7157,0 1.2917,0.57638 1.2917,1.29249 V 30.2075 h 7.3312 c 0.7157,0 1.2917,0.5764 1.2917,1.2925 0,0.7161 -0.576,1.2925 -1.2917,1.2925 H 25.869 v 23.7363 c 0,0.7161 -0.576,1.2925 -1.2917,1.2925 h -8.6229 c -0.7157,0 -1.2917,-0.5764 -1.2917,-1.2925 0,-0.7161 0.576,-1.2925 1.2917,-1.2925 z"
       fill="white"
       id="path194"
       style="fill:#212121;fill-opacity:1" />
  </g>
</svg>
