<?xml version="1.0" encoding="UTF-8" standalone="no"?>
<svg
   width="25"
   height="25"
   viewBox="0 0 25 25"
   fill="none"
   version="1.1"
   id="svg848"
   sodipodi:docname="hamburger-menu--black.svg"
   inkscape:version="1.2.1 (9c6d41e410, 2022-07-14)"
   xmlns:inkscape="http://www.inkscape.org/namespaces/inkscape"
   xmlns:sodipodi="http://sodipodi.sourceforge.net/DTD/sodipodi-0.dtd"
   xmlns="http://www.w3.org/2000/svg"
   xmlns:svg="http://www.w3.org/2000/svg">
  <defs
     id="defs852" />
  <sodipodi:namedview
     id="namedview850"
     pagecolor="#ffffff"
     bordercolor="#000000"
     borderopacity="0.25"
     inkscape:showpageshadow="2"
     inkscape:pageopacity="0.0"
     inkscape:pagecheckerboard="0"
     inkscape:deskcolor="#d1d1d1"
     showgrid="false"
     inkscape:zoom="19.091883"
     inkscape:cx="-0.57616108"
     inkscape:cy="19.065694"
     inkscape:window-width="1920"
     inkscape:window-height="1017"
     inkscape:window-x="-8"
     inkscape:window-y="-8"
     inkscape:window-maximized="1"
     inkscape:current-layer="svg848" />
  <path
     id="rect3430"
     style="opacity:1;fill:#212121;stroke:none;stroke-width:13.9543;fill-opacity:1"
     d="M 4.0515625,2.5 C 3.19189,2.5 2.5,3.3648626 2.5,4.4394531 V 4.5605469 C 2.5,5.6351374 3.19189,6.5 4.0515625,6.5 H 20.948437 C 21.80811,6.5 22.5,5.6351374 22.5,4.5605469 V 4.4394531 C 22.5,3.3648626 21.80811,2.5 20.948437,2.5 Z m 0,8 C 3.19189,10.5 2.5,11.364863 2.5,12.439453 v 0.121094 C 2.5,13.635137 3.19189,14.5 4.0515625,14.5 H 20.948437 C 21.80811,14.5 22.5,13.635137 22.5,12.560547 V 12.439453 C 22.5,11.364863 21.80811,10.5 20.948437,10.5 Z m 0,8 C 3.19189,18.5 2.5,19.364863 2.5,20.439453 v 0.121094 C 2.5,21.635137 3.19189,22.5 4.0515625,22.5 H 20.948437 C 21.80811,22.5 22.5,21.635137 22.5,20.560547 V 20.439453 C 22.5,19.364863 21.80811,18.5 20.948437,18.5 Z" />
</svg>
