<?xml version="1.0" encoding="UTF-8" standalone="no"?>
<svg
   width="25"
   height="25"
   viewBox="0 0 25 25"
   fill="none"
   version="1.1"
   id="svg1109"
   sodipodi:docname="dark-theme__off.svg"
   inkscape:version="1.2.1 (9c6d41e410, 2022-07-14)"
   xmlns:inkscape="http://www.inkscape.org/namespaces/inkscape"
   xmlns:sodipodi="http://sodipodi.sourceforge.net/DTD/sodipodi-0.dtd"
   xmlns="http://www.w3.org/2000/svg"
   xmlns:svg="http://www.w3.org/2000/svg">
  <defs
     id="defs1113" />
  <sodipodi:namedview
     id="namedview1111"
     pagecolor="#ffffff"
     bordercolor="#000000"
     borderopacity="0.25"
     inkscape:showpageshadow="2"
     inkscape:pageopacity="0.0"
     inkscape:pagecheckerboard="0"
     inkscape:deskcolor="#d1d1d1"
     showgrid="false"
     inkscape:zoom="11.991353"
     inkscape:cx="-2.4184094"
     inkscape:cy="18.179767"
     inkscape:window-width="1920"
     inkscape:window-height="1017"
     inkscape:window-x="-8"
     inkscape:window-y="-8"
     inkscape:window-maximized="1"
     inkscape:current-layer="svg1109" />
  <path
     d="m 12.5,3.90625 c -2.7102327,0 -4.9090909,2.1484375 -4.9090909,4.6875 0,0.4394583 0.3579491,0.78125 0.8181818,0.78125 0.4090909,0 0.8181818,-0.3417917 0.8181818,-0.78125 0,-1.7089792 1.4318183,-3.125 3.2727273,-3.125 0.409091,0 0.818182,-0.3417917 0.818182,-0.78125 0,-0.390625 -0.409091,-0.78125 -0.818182,-0.78125 z M 8.4090909,22.460937 c 0,0.146459 0,0.293021 0.102273,0.43948 l 1.2784036,1.757812 C 9.9431818,24.902292 10.198858,25 10.454545,25 h 4.039746 c 0.255709,0 0.511418,-0.09771 0.6648,-0.341771 l 1.278437,-1.757812 c 0.05106,-0.146459 0.102219,-0.293021 0.102219,-0.43948 V 20.3125 H 8.4090909 Z M 12.5,0 c -5.26704,0 -9,4.0527292 -9,8.59375 0,2.197292 0.8181818,4.150417 2.1988582,5.664063 0.8693236,0.927708 2.1988691,2.880833 2.6590909,4.492187 h 2.4545459 c 0,-0.195313 0,-0.439479 -0.102262,-0.683542 C 10.454545,17.1875 9.5852218,14.941458 7.5397673,12.744167 6.51704,11.572292 5.9545454,10.107417 5.9545454,8.59375 5.9034036,5.0292917 8.9715855,2.34375 12.5,2.34375 c 3.579491,0 6.545454,2.8320312 6.545454,6.25 0,1.513667 -0.613636,2.978542 -1.636363,4.150417 -1.994291,2.148437 -2.9148,4.443333 -3.170455,5.322291 -0.10227,0.244063 -0.10227,0.439375 -0.10227,0.683542 h 2.454545 C 17.051163,17.138646 18.380655,15.185521 19.25,14.257813 20.630655,12.744167 21.5,10.791042 21.5,8.59375 21.5,3.8574167 17.460255,0 12.5,0 Z"
     fill="white"
     id="path1107"
     style="fill:#212121;stroke-width:1.066;fill-opacity:1" />
</svg>
