<svg width="17" height="24" viewBox="0 0 17 24" fill="none" xmlns="http://www.w3.org/2000/svg">
<path d="M8.25 3.75C5.76562 3.75 3.75 5.8125 3.75 8.25C3.75 8.67188 4.07812 9 4.5 9C4.875 9 5.25 8.67188 5.25 8.25C5.25 6.60938 6.5625 5.25 8.25 5.25C8.625 5.25 9 4.92188 9 4.5C9 4.125 8.625 3.75 8.25 3.75ZM4.5 21.5625C4.5 21.7031 4.5 21.8438 4.59375 21.9844L5.76562 23.6719C5.90625 23.9062 6.14062 24 6.375 24H10.0781C10.3125 24 10.5469 23.9062 10.6875 23.6719L11.8594 21.9844C11.9062 21.8438 11.9531 21.7031 11.9531 21.5625V19.5H4.5V21.5625ZM8.25 0C3.42188 0 0 3.89062 0 8.25C0 10.3594 0.75 12.2344 2.01562 13.6875C2.8125 14.5781 4.03125 16.4531 4.45312 18H6.70312C6.70312 17.8125 6.70312 17.5781 6.60938 17.3438C6.375 16.5 5.57812 14.3438 3.70312 12.2344C2.76562 11.1094 2.25 9.70312 2.25 8.25C2.20312 4.82812 5.01562 2.25 8.25 2.25C11.5312 2.25 14.25 4.96875 14.25 8.25C14.25 9.70312 13.6875 11.1094 12.75 12.2344C10.9219 14.2969 10.0781 16.5 9.84375 17.3438C9.75 17.5781 9.75 17.7656 9.75 18H12C12.4219 16.4531 13.6406 14.5781 14.4375 13.6875C15.7031 12.2344 16.5 10.3594 16.5 8.25C16.5 3.70312 12.7969 0 8.25 0Z" fill="white"/>
</svg>
