<?xml version="1.0" encoding="UTF-8" standalone="no"?>
<svg
   width="192"
   height="192"
   viewBox="0 0 192 192"
   fill="none"
   version="1.1"
   id="svg200"
   sodipodi:docname="Favicon.svg"
   inkscape:version="1.2.1 (9c6d41e410, 2022-07-14)"
   xmlns:inkscape="http://www.inkscape.org/namespaces/inkscape"
   xmlns:sodipodi="http://sodipodi.sourceforge.net/DTD/sodipodi-0.dtd"
   xmlns="http://www.w3.org/2000/svg"
   xmlns:svg="http://www.w3.org/2000/svg">
  <defs
     id="defs204" />
  <sodipodi:namedview
     id="namedview202"
     pagecolor="#ffffff"
     bordercolor="#000000"
     borderopacity="0.25"
     inkscape:showpageshadow="2"
     inkscape:pageopacity="0.0"
     inkscape:pagecheckerboard="0"
     inkscape:deskcolor="#d1d1d1"
     showgrid="false"
     inkscape:zoom="1.0598958"
     inkscape:cx="-40.570024"
     inkscape:cy="57.552825"
     inkscape:window-width="1920"
     inkscape:window-height="1017"
     inkscape:window-x="-8"
     inkscape:window-y="-8"
     inkscape:window-maximized="1"
     inkscape:current-layer="svg200" />
  <g
     id="g318"
     transform="matrix(4,0,0,4,-4.0000008,-8e-7)">
    <rect
       width="48"
       height="48"
       rx="10"
       fill="#ffffff"
       id="rect194"
       x="1"
       y="0" />
    <path
       d="m 14.2923,40.0768 c 0.2426,-0.1202 0.3979,-0.3654 0.3979,-0.6346 0,-0.2692 -0.1553,-0.5144 -0.3979,-0.6346 L 8.53826,35.9518 C 8.31508,35.8413 8.05309,35.8557 7.83962,35.9855 7.62614,36.1153 7.5,36.3461 7.5,36.5912 v 5.6971 c 0,0.2452 0.131,0.476 0.33962,0.6058 0.21347,0.1298 0.47546,0.1394 0.69864,0.0336 z m -5.3562,-2.3365 3.4301,1.6971 -3.4301,1.6971 z m 19.659,1.6971 c 0,-0.9471 -0.3784,-1.851 -1.0528,-2.5192 C 26.8679,36.2499 25.9509,35.8749 25,35.8749 c -0.9509,0 -1.8679,0.375 -2.5423,1.0433 -0.6744,0.6682 -1.0528,1.5769 -1.0528,2.5192 0,0.9423 0.3784,1.8509 1.0528,2.5192 0.6744,0.6683 1.5914,1.0433 2.5423,1.0433 0.9509,0 1.8679,-0.375 2.5423,-1.0433 0.6744,-0.6683 1.0528,-1.5721 1.0528,-2.5192 z m -5.7541,0 c 0,-0.5673 0.228,-1.1106 0.6307,-1.5144 0.4027,-0.3991 0.9558,-0.625 1.5283,-0.625 0.5725,0 1.1207,0.2259 1.5283,0.625 0.4027,0.399 0.6307,0.9471 0.6307,1.5144 0,0.5673 -0.228,1.1105 -0.6307,1.5144 -0.4027,0.399 -0.9558,0.625 -1.5283,0.625 -0.5725,0 -1.1207,-0.226 -1.5283,-0.625 C 23.069,40.5528 22.841,40.0047 22.841,39.4374 Z M 42.5,42.2883 v -5.7019 c 0,-0.3942 -0.3202,-0.7115 -0.718,-0.7115 h -5.7541 c -0.3979,0 -0.7181,0.3173 -0.7181,0.7115 v 5.7019 c 0,0.3942 0.3202,0.7116 0.7181,0.7116 h 5.7541 c 0.3978,0 0.718,-0.3174 0.718,-0.7116 z M 36.7459,41.5768 V 37.298 h 4.318 v 4.2788 z M 38.1869,30.173 H 25.718 v 4.0385 c 0,0.3942 -0.3202,0.7115 -0.718,0.7115 -0.3978,0 -0.718,-0.3173 -0.718,-0.7115 V 30.173 H 11.8131 v 4.0385 c 0,0.3942 -0.32017,0.7115 -0.71801,0.7115 -0.39783,0 -0.71805,-0.3173 -0.71805,-0.7115 v -4.75 c 0,-0.3942 0.32021,-0.7115 0.71805,-0.7115 H 24.282 V 24.7115 C 24.282,24.3173 24.6022,24 25,24 c 0.3978,0 0.718,0.3173 0.718,0.7115 V 28.75 h 13.1869 c 0.3978,0 0.7181,0.3173 0.7181,0.7115 v 4.75 c 0,0.3942 -0.3203,0.7115 -0.7181,0.7115 -0.3978,0 -0.718,-0.3173 -0.718,-0.7115 z"
       fill="#6278f7"
       id="path196" />
    <path
       d="m 25.0171,21.6701 c -1.7139,0 -3.248,-0.3782 -4.6106,-1.1431 -1.354,-0.7649 -2.4253,-1.8134 -3.2051,-3.1541 -0.7799,-1.3407 -1.1741,-2.8619 -1.1741,-4.555 0,-1.6931 0.3942,-3.24014 1.1741,-4.55508 0.7798,-1.31494 1.8425,-2.35486 3.188,-3.11976 C 21.7349,4.37815 23.2774,4 25.0171,4 c 1.7397,0 3.248,0.37815 4.6107,1.12587 1.354,0.74771 2.4167,1.78763 3.188,3.11976 0.7713,1.33213 1.1569,2.85337 1.1569,4.57227 0,1.7188 -0.3856,3.24 -1.1569,4.5722 -0.7713,1.3321 -1.834,2.372 -3.188,3.1369 -1.3541,0.7649 -2.8967,1.1431 -4.6107,1.1431 z m 0,-2.7416 c 1.1056,0 2.0997,-0.2493 2.9824,-0.7477 0.8827,-0.4985 1.5683,-1.2119 2.0653,-2.14 0.4971,-0.9282 0.7456,-1.9939 0.7456,-3.2144 0,-1.2204 -0.2485,-2.3118 -0.7456,-3.21426 C 29.5678,8.70973 28.8736,8.00499 27.9995,7.50652 27.1168,7.00804 26.1227,6.7588 25.0171,6.7588 c -1.1055,0 -2.091,0.24924 -2.9652,0.74772 -0.8655,0.49847 -1.5597,1.20321 -2.0824,2.10562 -0.5228,0.90246 -0.7799,1.97676 -0.7799,3.21426 0,1.2376 0.2571,2.2948 0.7799,3.2144 0.5227,0.9281 1.2169,1.6415 2.0824,2.14 0.8656,0.4984 1.8597,0.7477 2.9652,0.7477 z"
       fill="#6278f7"
       id="path198" />
  </g>
</svg>
