<?xml version="1.0" encoding="UTF-8" standalone="no"?>
<svg
   width="25"
   height="25"
   viewBox="0 0 25 25"
   fill="none"
   version="1.1"
   id="svg473"
   sodipodi:docname="twitter.svg"
   inkscape:version="1.2.1 (9c6d41e410, 2022-07-14)"
   xmlns:inkscape="http://www.inkscape.org/namespaces/inkscape"
   xmlns:sodipodi="http://sodipodi.sourceforge.net/DTD/sodipodi-0.dtd"
   xmlns="http://www.w3.org/2000/svg"
   xmlns:svg="http://www.w3.org/2000/svg">
  <defs
     id="defs477" />
  <sodipodi:namedview
     id="namedview475"
     pagecolor="#ffffff"
     bordercolor="#000000"
     borderopacity="0.25"
     inkscape:showpageshadow="2"
     inkscape:pageopacity="0.0"
     inkscape:pagecheckerboard="0"
     inkscape:deskcolor="#d1d1d1"
     showgrid="false"
     inkscape:zoom="14.796209"
     inkscape:cx="9.5970526"
     inkscape:cy="7.704676"
     inkscape:window-width="1920"
     inkscape:window-height="1017"
     inkscape:window-x="-8"
     inkscape:window-y="-8"
     inkscape:window-maximized="1"
     inkscape:current-layer="svg473" />
  <path
     d="M 22.455966,6.8343373 C 23.434441,6.0210901 24.31512,5.045175 25,3.9066265 24.119425,4.3403614 23.092001,4.6656627 22.064576,4.7740964 23.14095,4.0692828 23.92373,2.9849456 24.31512,1.6295181 23.336645,2.2801205 22.211321,2.7680781 21.086102,3.0391566 20.107627,1.9006024 18.786712,1.25 17.319053,1.25 c -2.837629,0 -5.137018,2.5481928 -5.137018,5.6927712 0,0.4337347 0.04895,0.8674697 0.146745,1.3012046 C 8.0724207,7.9728974 4.2563593,5.6957773 1.7123253,2.2801205 1.272017,3.0933676 1.0273983,4.0692828 1.0273983,5.1536203 c 0,1.9518072 0.880622,3.6867469 2.2994153,4.7168617 C 2.495105,9.8162594 1.6634068,9.5993918 0.9784746,9.1656568 v 0.054222 c 0,2.7650552 1.7612543,5.0421982 4.1095933,5.5843102 -0.3913898,0.108491 -0.8806271,0.216867 -1.3209355,0.216867 -0.3424713,0 -0.6360137,-0.05424 -0.9784746,-0.108376 0.6360033,2.277051 2.544034,3.903614 4.7945152,3.957744 C 5.8219187,20.388612 3.620356,21.310212 1.2230985,21.310212 0.78277968,21.310212 0.39138984,21.256082 0,21.201837 2.2504916,22.828284 4.941302,23.75 7.8767258,23.75 c 9.4423272,0 14.5792402,-8.620453 14.5792402,-16.1566265 0,-0.2710786 0,-0.487946 0,-0.7590362 z"
     fill="white"
     id="path471"
     style="fill:#ffffff;stroke-width:1.09872" />
</svg>
