<?xml version="1.0" encoding="UTF-8" standalone="no"?>
<svg
   width="25"
   height="25"
   viewBox="0 0 25 25"
   fill="none"
   version="1.1"
   id="svg286"
   sodipodi:docname="instagram.svg"
   inkscape:version="1.2.1 (9c6d41e410, 2022-07-14)"
   xmlns:inkscape="http://www.inkscape.org/namespaces/inkscape"
   xmlns:sodipodi="http://sodipodi.sourceforge.net/DTD/sodipodi-0.dtd"
   xmlns="http://www.w3.org/2000/svg"
   xmlns:svg="http://www.w3.org/2000/svg">
  <defs
     id="defs290" />
  <sodipodi:namedview
     id="namedview288"
     pagecolor="#ffffff"
     bordercolor="#000000"
     borderopacity="0.25"
     inkscape:showpageshadow="2"
     inkscape:pageopacity="0.0"
     inkscape:pagecheckerboard="0"
     inkscape:deskcolor="#d1d1d1"
     showgrid="false"
     inkscape:zoom="19.022727"
     inkscape:cx="4.0477898"
     inkscape:cy="9.3572283"
     inkscape:window-width="1920"
     inkscape:window-height="1017"
     inkscape:window-x="-8"
     inkscape:window-y="-8"
     inkscape:window-maximized="1"
     inkscape:current-layer="svg286" />
  <path
     d="m 12.527908,6.05469 c -3.5714304,0 -6.4174085,2.901784 -6.4174085,6.417402 0,3.571426 2.8459781,6.417376 6.4174085,6.417376 3.515598,0 6.417386,-2.84595 6.417386,-6.417376 0,-3.515618 -2.901788,-6.417402 -6.417386,-6.417402 z m 0,10.602636 c -2.287953,0 -4.1852641,-1.841426 -4.1852641,-4.185234 0,-2.287952 1.8415131,-4.1294628 4.1852641,-4.1294628 2.287978,0 4.129527,1.8415108 4.129527,4.1294628 0,2.343808 -1.841549,4.185234 -4.129527,4.185234 z M 20.675295,5.8314758 c 0,-0.837059 -0.669763,-1.5067015 -1.506787,-1.5067015 -0.837024,0 -1.506668,0.6696425 -1.506668,1.5067015 0,0.8370472 0.669644,1.5066896 1.506668,1.5066896 0.837024,0 1.506787,-0.6696424 1.506787,-1.5066896 z M 24.91625,7.3381654 C 24.804702,5.329238 24.358273,3.5435248 22.907439,2.0926327 21.456486,0.6417407 19.67077,0.19531239 17.66184,0.08370531 c -2.064763,-0.11160708 -8.2589335,-0.11160708 -10.323673,0 C 5.3292371,0.19531239 3.5993313,0.6417407 2.0926397,2.0926327 0.64173406,3.5435248 0.19530519,5.329238 0.08370988,7.3381654 c -0.11161317,2.064737 -0.11161317,8.2589246 0,10.3236856 0.11159531,2.008926 0.55802418,3.738806 2.00892982,5.245472 1.5066916,1.450951 3.2365974,1.897379 5.2455273,2.008927 2.0647395,0.111667 8.25891,0.111667 10.323673,0 2.00893,-0.111548 3.794646,-0.557976 5.245599,-2.008927 1.450834,-1.506666 1.897263,-3.236546 2.008811,-5.245472 0.111667,-2.064761 0.111667,-8.2589486 0,-10.3236856 z M 22.237677,19.838158 c -0.390596,1.116071 -1.283454,1.953094 -2.343692,2.399522 -1.674168,0.669643 -5.580361,0.502262 -7.366077,0.502262 -1.841524,0 -5.7477651,0.167381 -7.3660757,-0.502262 C 4.0457602,21.791252 3.2087119,20.954229 2.762283,19.838158 2.0926397,18.219825 2.2600447,14.313638 2.2600447,12.472092 c 0,-1.785714 -0.167405,-5.6919619 0.5022383,-7.3660681 C 3.2087119,4.0457626 4.0457602,3.2087035 5.1618323,2.7622752 6.7801429,2.0926327 10.686384,2.2600493 12.527908,2.2600493 c 1.785716,0 5.691909,-0.1674166 7.366077,0.5022259 1.060238,0.3906307 1.897263,1.2834874 2.343692,2.3437487 0.669762,1.6741062 0.502262,5.5803541 0.502262,7.3660681 0,1.841546 0.1675,5.747733 -0.502262,7.366066 z"
     fill="white"
     id="path284"
     style="fill:#ffffff;stroke-width:1.19048" />
</svg>
